<?xml version="1.0" standalone="no"?>
<!DOCTYPE svg PUBLIC "-//W3C//DTD SVG 20010904//EN"
 "http://www.w3.org/TR/2001/REC-SVG-20010904/DTD/svg10.dtd">
<svg version="1.0" xmlns="http://www.w3.org/2000/svg"
 width="3840.000000pt" height="2160.000000pt" viewBox="0 0 3840.000000 2160.000000"
 preserveAspectRatio="xMidYMid meet">

<g transform="translate(0.000000,2160.000000) scale(0.100000,-0.100000)"
fill="#000000" stroke="none">
<path d="M2390 14783 c-590 -24 -1070 -155 -1422 -389 -116 -78 -286 -239
-370 -351 -156 -209 -252 -439 -303 -728 -23 -123 -31 -414 -16 -556 54 -522
299 -943 682 -1170 100 -59 298 -142 512 -214 236 -79 364 -112 817 -210 791
-171 1186 -326 1410 -554 122 -124 169 -246 156 -411 -15 -196 -70 -325 -190
-445 -93 -93 -185 -145 -336 -193 -357 -112 -901 -102 -1250 24 -263 94 -457
252 -561 457 -41 80 -95 246 -110 340 l-13 77 -608 0 c-334 0 -608 -3 -608 -7
0 -5 7 -70 15 -145 65 -611 293 -1043 729 -1383 340 -264 783 -411 1376 -456
203 -15 700 -7 880 15 599 74 1063 267 1365 571 305 306 472 695 504 1179 37
546 -101 970 -418 1286 -197 196 -403 309 -771 423 -208 65 -948 271 -1455
407 -265 71 -364 105 -514 176 -198 94 -315 193 -377 319 -40 82 -53 159 -42
265 33 315 234 536 566 619 122 31 216 42 382 46 579 13 969 -160 1158 -515
53 -98 82 -196 89 -297 l6 -83 588 0 588 0 -5 58 c-19 221 -51 390 -105 557
-119 363 -350 687 -637 892 -301 216 -684 340 -1192 388 -73 7 -420 12 -520 8z"/>
<path d="M19013 11908 l3 -2683 20 -90 c28 -120 67 -215 121 -297 55 -85 117
-139 207 -184 116 -56 187 -65 536 -62 l305 3 3 1691 c2 1601 3 1692 20 1696
9 2 169 3 355 3 l337 -1 0 611 0 611 -346 0 c-190 -1 -350 1 -354 4 -5 3 -10
205 -12 450 -4 427 -5 448 -27 520 -49 162 -148 289 -272 348 -115 55 -180 62
-559 62 l-340 0 3 -2682z"/>
<path d="M7515 13343 c-837 -37 -1433 -286 -1775 -741 -214 -285 -330 -602
-402 -1103 l-22 -154 -3 -2268 -3 -2269 347 4 c288 4 358 8 407 22 188 53 339
200 404 390 l27 81 3 773 c2 424 5 772 7 772 2 0 46 -27 97 -61 201 -131 473
-241 708 -288 198 -39 281 -46 515 -45 210 0 241 3 356 27 215 45 389 116 554
224 446 293 753 781 890 1418 46 212 66 401 72 690 8 400 -20 690 -97 989 -72
282 -171 511 -318 731 -239 359 -676 636 -1182 749 -177 39 -436 65 -585 59z
m258 -1098 c404 -117 631 -453 709 -1045 19 -147 16 -540 -5 -684 -72 -481
-256 -796 -552 -942 -306 -151 -711 -114 -981 90 -217 163 -350 411 -417 781
-19 106 -22 156 -22 415 0 236 4 318 18 410 89 566 317 883 707 985 147 39
392 34 543 -10z"/>
<path d="M30280 13343 c-107 -6 -284 -26 -395 -44 -827 -135 -1343 -610 -1499
-1379 -51 -254 -50 -195 -53 -1827 l-4 -1523 611 0 610 0 0 1529 c0 1675 -2
1613 59 1781 111 303 353 470 703 484 190 7 341 -21 487 -91 199 -95 324 -275
372 -533 9 -49 12 -449 13 -1615 l1 -1550 603 -3 602 -2 0 1542 c1 1245 3
1557 14 1618 50 282 214 490 454 577 184 68 460 77 660 23 262 -71 416 -227
494 -496 l23 -79 5 -1360 5 -1360 28 -79 c66 -186 202 -308 407 -365 69 -20
101 -21 457 -21 l383 0 0 1945 c0 1663 -2 1951 -14 1980 -38 91 -172 244 -295
339 -369 284 -876 453 -1502 501 -140 11 -467 8 -574 -5 -203 -24 -468 -83
-631 -141 -151 -53 -313 -141 -423 -230 -34 -28 -68 -48 -74 -45 -7 3 -55 37
-107 76 -233 170 -487 263 -875 319 -121 18 -198 24 -455 34 -25 1 -65 1 -90
0z"/>
<path d="M11854 13320 c-648 -55 -1137 -330 -1469 -826 -210 -312 -345 -740
-386 -1221 -15 -188 -6 -695 16 -853 63 -456 179 -794 370 -1080 287 -431 693
-704 1195 -804 180 -36 298 -46 514 -46 275 0 456 21 682 79 590 154 1051 543
1284 1086 39 90 120 320 120 340 0 3 -235 5 -523 5 l-523 0 -13 -37 c-7 -21
-30 -67 -51 -103 -120 -205 -324 -324 -616 -359 -108 -13 -380 -6 -486 13
-333 60 -542 248 -657 592 -36 107 -70 290 -73 399 l-3 80 1505 0 1505 0 3
205 c15 975 -267 1729 -793 2126 -285 215 -599 336 -1005 389 -143 18 -461 26
-596 15z m436 -1015 c383 -58 612 -314 691 -773 10 -63 19 -125 19 -138 l0
-24 -890 0 -890 0 0 44 c0 64 26 203 56 298 102 324 339 537 654 588 41 6 82
13 90 15 43 8 186 3 270 -10z"/>
<path d="M16457 13319 c-325 -27 -631 -106 -860 -220 -661 -332 -1004 -982
-1056 -2004 -32 -623 58 -1129 279 -1559 306 -599 817 -942 1536 -1031 141
-18 476 -20 620 -5 729 79 1287 467 1604 1112 62 126 140 334 140 372 0 14
-54 16 -568 16 l-568 0 -44 -92 c-107 -223 -257 -334 -517 -387 -120 -25 -327
-34 -456 -20 -109 12 -251 56 -337 106 -90 53 -233 198 -292 298 -153 257
-222 586 -222 1050 0 266 9 364 51 555 126 571 481 855 1004 802 154 -15 225
-35 348 -94 89 -43 116 -62 186 -132 59 -59 92 -103 123 -163 23 -44 42 -88
42 -97 0 -14 58 -16 611 -16 l611 0 -8 33 c-13 59 -83 255 -123 341 -291 630
-840 1028 -1546 1121 -142 19 -420 26 -558 14z"/>
<path d="M23170 13218 c-284 -21 -533 -66 -735 -133 -590 -195 -954 -498
-1201 -1000 -143 -291 -223 -628 -243 -1028 -5 -84 -8 -674 -7 -1312 l1 -1160
608 -3 607 -2 0 1262 c0 856 4 1292 11 1353 58 472 300 722 761 785 46 7 203
12 351 13 l267 2 0 618 0 618 -157 -2 c-87 -2 -205 -6 -263 -11z"/>
<path d="M23943 11708 c5 -1646 3 -1599 62 -1858 151 -667 580 -1106 1245
-1275 237 -60 489 -85 790 -79 420 8 739 75 1027 214 176 84 288 164 428 305
247 246 381 522 458 940 21 120 22 123 25 1693 l3 1572 -355 0 c-221 0 -375
-4 -408 -11 -193 -40 -343 -199 -409 -435 l-23 -79 -1 -1280 c-2 -1139 -4
-1288 -18 -1352 -87 -388 -353 -603 -762 -618 -274 -9 -468 57 -625 214 -96
96 -149 190 -192 336 l-23 80 -3 1573 -2 1572 -611 0 -610 0 4 -1512z"/>
<path d="M35670 10510 c0 -1542 3 -1930 13 -1924 39 24 2517 1917 2517 1923 0
6 -2479 1901 -2517 1924 -11 7 -13 -318 -13 -1923z"/>
</g>
</svg>
