<?xml version="1.0" encoding="UTF-8"?>
<svg width="700pt" height="700pt" version="1.1" viewBox="0 0 700 700" xmlns="http://www.w3.org/2000/svg" xmlns:xlink="http://www.w3.org/1999/xlink">
 <defs>
  <symbol id="s" overflow="visible">
   <path d="m18.766-1.125c-0.96875 0.5-1.9805 0.875-3.0312 1.125-1.043 0.25781-2.1367 0.39062-3.2812 0.39062-3.3984 0-6.0898-0.94531-8.0781-2.8438-1.9922-1.9062-2.9844-4.4844-2.9844-7.7344 0-3.2578 0.99219-5.8359 2.9844-7.7344 1.9883-1.9062 4.6797-2.8594 8.0781-2.8594 1.1445 0 2.2383 0.13281 3.2812 0.39062 1.0508 0.25 2.0625 0.625 3.0312 1.125v4.2188c-0.98047-0.65625-1.9453-1.1406-2.8906-1.4531-0.94922-0.3125-1.9492-0.46875-3-0.46875-1.875 0-3.3516 0.60547-4.4219 1.8125-1.0742 1.1992-1.6094 2.8555-1.6094 4.9688 0 2.1055 0.53516 3.7617 1.6094 4.9688 1.0703 1.1992 2.5469 1.7969 4.4219 1.7969 1.0508 0 2.0508-0.14844 3-0.45312 0.94531-0.3125 1.9102-0.80078 2.8906-1.4688z"/>
  </symbol>
  <symbol id="d" overflow="visible">
   <path d="m13.734-11.141c-0.4375-0.19531-0.87109-0.34375-1.2969-0.4375-0.41797-0.10156-0.83984-0.15625-1.2656-0.15625-1.2617 0-2.2305 0.40625-2.9062 1.2188-0.67969 0.80469-1.0156 1.9531-1.0156 3.4531v7.0625h-4.8906v-15.312h4.8906v2.5156c0.625-1 1.3438-1.7266 2.1562-2.1875 0.82031-0.46875 1.8008-0.70312 2.9375-0.70312 0.16406 0 0.34375 0.011719 0.53125 0.03125 0.19531 0.011719 0.47656 0.039062 0.84375 0.078125z"/>
  </symbol>
  <symbol id="b" overflow="visible">
   <path d="m17.641-7.7031v1.4062h-11.453c0.125 1.1484 0.53906 2.0078 1.25 2.5781 0.70703 0.57422 1.7031 0.85938 2.9844 0.85938 1.0312 0 2.082-0.14844 3.1562-0.45312 1.082-0.3125 2.1914-0.77344 3.3281-1.3906v3.7656c-1.1562 0.4375-2.3125 0.76562-3.4688 0.98438-1.1562 0.22656-2.3125 0.34375-3.4688 0.34375-2.7734 0-4.9297-0.70312-6.4688-2.1094-1.5312-1.4062-2.2969-3.3789-2.2969-5.9219 0-2.5 0.75391-4.4609 2.2656-5.8906 1.5078-1.4375 3.582-2.1562 6.2188-2.1562 2.4062 0 4.332 0.73047 5.7812 2.1875 1.4453 1.4492 2.1719 3.3828 2.1719 5.7969zm-5.0312-1.625c0-0.92578-0.27344-1.6719-0.8125-2.2344-0.54297-0.57031-1.25-0.85938-2.125-0.85938-0.94922 0-1.7188 0.26562-2.3125 0.79688s-0.96484 1.2969-1.1094 2.2969z"/>
  </symbol>
  <symbol id="c" overflow="visible">
   <path d="m9.2188-6.8906c-1.0234 0-1.793 0.17188-2.3125 0.51562-0.51172 0.34375-0.76562 0.85547-0.76562 1.5312 0 0.625 0.20703 1.1172 0.625 1.4688 0.41406 0.34375 0.98828 0.51562 1.7188 0.51562 0.92578 0 1.7031-0.32812 2.3281-0.98438 0.63281-0.66406 0.95312-1.4922 0.95312-2.4844v-0.5625zm7.4688-1.8438v8.7344h-4.9219v-2.2656c-0.65625 0.92969-1.3984 1.6055-2.2188 2.0312-0.82422 0.41406-1.8242 0.625-3 0.625-1.5859 0-2.8711-0.45703-3.8594-1.375-0.99219-0.92578-1.4844-2.1289-1.4844-3.6094 0-1.7891 0.61328-3.1016 1.8438-3.9375 1.2383-0.84375 3.1797-1.2656 5.8281-1.2656h2.8906v-0.39062c0-0.76953-0.30859-1.332-0.92188-1.6875-0.61719-0.36328-1.5703-0.54688-2.8594-0.54688-1.0547 0-2.0312 0.10547-2.9375 0.3125-0.89844 0.21094-1.7305 0.52344-2.5 0.9375v-3.7344c1.0391-0.25 2.0859-0.44141 3.1406-0.57812 1.0625-0.13281 2.125-0.20312 3.1875-0.20312 2.7578 0 4.75 0.54688 5.9688 1.6406 1.2266 1.0859 1.8438 2.8555 1.8438 5.3125z"/>
  </symbol>
  <symbol id="a" overflow="visible">
   <path d="m7.7031-19.656v4.3438h5.0469v3.5h-5.0469v6.5c0 0.71094 0.14062 1.1875 0.42188 1.4375s0.83594 0.375 1.6719 0.375h2.5156v3.5h-4.1875c-1.9375 0-3.3125-0.39844-4.125-1.2031-0.80469-0.8125-1.2031-2.1797-1.2031-4.1094v-6.5h-2.4219v-3.5h2.4219v-4.3438z"/>
  </symbol>
  <symbol id="k" overflow="visible">
   <path d="m12.766-13.078v-8.2031h4.9219v21.281h-4.9219v-2.2188c-0.66797 0.90625-1.4062 1.5703-2.2188 1.9844s-1.7578 0.625-2.8281 0.625c-1.8867 0-3.4336-0.75-4.6406-2.25-1.2109-1.5-1.8125-3.4258-1.8125-5.7812 0-2.3633 0.60156-4.2969 1.8125-5.7969 1.207-1.5 2.7539-2.25 4.6406-2.25 1.0625 0 2 0.21484 2.8125 0.64062 0.82031 0.42969 1.5664 1.0859 2.2344 1.9688zm-3.2188 9.9219c1.0391 0 1.8359-0.37891 2.3906-1.1406 0.55078-0.76953 0.82812-1.8828 0.82812-3.3438 0-1.457-0.27734-2.5664-0.82812-3.3281-0.55469-0.76953-1.3516-1.1562-2.3906-1.1562-1.043 0-1.8398 0.38672-2.3906 1.1562-0.55469 0.76172-0.82812 1.8711-0.82812 3.3281 0 1.4609 0.27344 2.5742 0.82812 3.3438 0.55078 0.76172 1.3477 1.1406 2.3906 1.1406z"/>
  </symbol>
  <symbol id="j" overflow="visible">
   <path d="m10.5-3.1562c1.0508 0 1.8516-0.37891 2.4062-1.1406 0.55078-0.76953 0.82812-1.8828 0.82812-3.3438 0-1.457-0.27734-2.5664-0.82812-3.3281-0.55469-0.76953-1.3555-1.1562-2.4062-1.1562-1.0547 0-1.8594 0.38672-2.4219 1.1562-0.55469 0.77344-0.82812 1.8828-0.82812 3.3281 0 1.4492 0.27344 2.5586 0.82812 3.3281 0.5625 0.77344 1.3672 1.1562 2.4219 1.1562zm-3.25-9.9219c0.67578-0.88281 1.4219-1.5391 2.2344-1.9688 0.82031-0.42578 1.7656-0.64062 2.8281-0.64062 1.8945 0 3.4453 0.75 4.6562 2.25 1.207 1.5 1.8125 3.4336 1.8125 5.7969 0 2.3555-0.60547 4.2812-1.8125 5.7812-1.2109 1.5-2.7617 2.25-4.6562 2.25-1.0625 0-2.0078-0.21094-2.8281-0.625-0.8125-0.42578-1.5586-1.0859-2.2344-1.9844v2.2188h-4.8906v-21.281h4.8906z"/>
  </symbol>
  <symbol id="i" overflow="visible">
   <path d="m0.34375-15.312h4.8906l4.125 10.391 3.5-10.391h4.8906l-6.4375 16.766c-0.64844 1.6953-1.4023 2.8828-2.2656 3.5625-0.86719 0.6875-2 1.0312-3.4062 1.0312h-2.8438v-3.2188h1.5312c0.83203 0 1.4375-0.13672 1.8125-0.40625 0.38281-0.26172 0.67969-0.73047 0.89062-1.4062l0.14062-0.42188z"/>
  </symbol>
  <symbol id="h" overflow="visible">
   <path d="m14.953-3.7188h-8.2188l-1.3125 3.7188h-5.2812l7.5625-20.406h6.2656l7.5625 20.406h-5.2812zm-6.9062-3.7812h5.5781l-2.7812-8.125z"/>
  </symbol>
  <symbol id="f" overflow="visible">
   <path d="m17.75-9.3281v9.3281h-4.9219v-7.1406c0-1.3203-0.03125-2.2344-0.09375-2.7344s-0.16797-0.86719-0.3125-1.1094c-0.1875-0.3125-0.44922-0.55469-0.78125-0.73438-0.32422-0.17578-0.69531-0.26562-1.1094-0.26562-1.0234 0-1.8242 0.39844-2.4062 1.1875-0.58594 0.78125-0.875 1.8711-0.875 3.2656v7.5312h-4.8906v-15.312h4.8906v2.2344c0.73828-0.88281 1.5195-1.5391 2.3438-1.9688 0.83203-0.42578 1.75-0.64062 2.75-0.64062 1.7695 0 3.1133 0.54688 4.0312 1.6406 0.91406 1.0859 1.375 2.6562 1.375 4.7188z"/>
  </symbol>
  <symbol id="g" overflow="visible">
   <path d="m17.75-9.3281v9.3281h-4.9219v-7.1094c0-1.3438-0.03125-2.2656-0.09375-2.7656s-0.16797-0.86719-0.3125-1.1094c-0.1875-0.3125-0.44922-0.55469-0.78125-0.73438-0.32422-0.17578-0.69531-0.26562-1.1094-0.26562-1.0234 0-1.8242 0.39844-2.4062 1.1875-0.58594 0.78125-0.875 1.8711-0.875 3.2656v7.5312h-4.8906v-21.281h4.8906v8.2031c0.73828-0.88281 1.5195-1.5391 2.3438-1.9688 0.83203-0.42578 1.75-0.64062 2.75-0.64062 1.7695 0 3.1133 0.54688 4.0312 1.6406 0.91406 1.0859 1.375 2.6562 1.375 4.7188z"/>
  </symbol>
  <symbol id="r" overflow="visible">
   <path d="m12.422-21.281v3.2188h-2.7031c-0.6875 0-1.1719 0.125-1.4531 0.375-0.27344 0.25-0.40625 0.6875-0.40625 1.3125v1.0625h4.1875v3.5h-4.1875v11.812h-4.8906v-11.812h-2.4375v-3.5h2.4375v-1.0625c0-1.6641 0.46094-2.8984 1.3906-3.7031 0.92578-0.80078 2.3672-1.2031 4.3281-1.2031z"/>
  </symbol>
  <symbol id="e" overflow="visible">
   <path d="m9.6406-12.188c-1.0859 0-1.9141 0.39062-2.4844 1.1719-0.57422 0.78125-0.85938 1.9062-0.85938 3.375s0.28516 2.5938 0.85938 3.375c0.57031 0.77344 1.3984 1.1562 2.4844 1.1562 1.0625 0 1.875-0.38281 2.4375-1.1562 0.57031-0.78125 0.85938-1.9062 0.85938-3.375s-0.28906-2.5938-0.85938-3.375c-0.5625-0.78125-1.375-1.1719-2.4375-1.1719zm0-3.5c2.6328 0 4.6914 0.71484 6.1719 2.1406 1.4766 1.418 2.2188 3.3867 2.2188 5.9062 0 2.5117-0.74219 4.4805-2.2188 5.9062-1.4805 1.418-3.5391 2.125-6.1719 2.125-2.6484 0-4.7148-0.70703-6.2031-2.125-1.4922-1.4258-2.2344-3.3945-2.2344-5.9062 0-2.5195 0.74219-4.4883 2.2344-5.9062 1.4883-1.4258 3.5547-2.1406 6.2031-2.1406z"/>
  </symbol>
  <symbol id="q" overflow="visible">
   <path d="m16.547-12.766c0.61328-0.94531 1.3477-1.6719 2.2031-2.1719 0.85156-0.5 1.7891-0.75 2.8125-0.75 1.7578 0 3.0977 0.54688 4.0156 1.6406 0.92578 1.0859 1.3906 2.6562 1.3906 4.7188v9.3281h-4.9219v-7.9844-0.35938c0.007813-0.13281 0.015625-0.32031 0.015625-0.5625 0-1.082-0.16406-1.8633-0.48438-2.3438-0.3125-0.48828-0.82422-0.73438-1.5312-0.73438-0.92969 0-1.6484 0.38672-2.1562 1.1562-0.51172 0.76172-0.77344 1.8672-0.78125 3.3125v7.5156h-4.9219v-7.9844c0-1.6953-0.14844-2.7852-0.4375-3.2656-0.29297-0.48828-0.8125-0.73438-1.5625-0.73438-0.9375 0-1.6641 0.38672-2.1719 1.1562-0.51172 0.76172-0.76562 1.8594-0.76562 3.2969v7.5312h-4.9219v-15.312h4.9219v2.2344c0.60156-0.86328 1.2891-1.5156 2.0625-1.9531 0.78125-0.4375 1.6406-0.65625 2.5781-0.65625 1.0625 0 2 0.25781 2.8125 0.76562 0.8125 0.51172 1.4258 1.2305 1.8438 2.1562z"/>
  </symbol>
  <symbol id="p" overflow="visible">
   <path d="m2.5781-20.406h5.875l7.4219 14v-14h4.9844v20.406h-5.875l-7.4219-14v14h-4.9844z"/>
  </symbol>
  <symbol id="o" overflow="visible">
   <path d="m2.1875-5.9688v-9.3438h4.9219v1.5312c0 0.83594-0.007813 1.875-0.015625 3.125-0.011719 1.25-0.015625 2.0859-0.015625 2.5 0 1.2422 0.03125 2.1328 0.09375 2.6719 0.070313 0.54297 0.17969 0.93359 0.32812 1.1719 0.20703 0.32422 0.47266 0.57422 0.79688 0.75 0.32031 0.16797 0.69141 0.25 1.1094 0.25 1.0195 0 1.8203-0.39062 2.4062-1.1719 0.58203-0.78125 0.875-1.8672 0.875-3.2656v-7.5625h4.8906v15.312h-4.8906v-2.2188c-0.74219 0.89844-1.5234 1.5586-2.3438 1.9844-0.82422 0.41406-1.7344 0.625-2.7344 0.625-1.7617 0-3.1055-0.53906-4.0312-1.625-0.92969-1.082-1.3906-2.6602-1.3906-4.7344z"/>
  </symbol>
  <symbol id="n" overflow="visible">
   <path d="m2.5781-20.406h8.7344c2.5938 0 4.582 0.57812 5.9688 1.7344 1.3945 1.1484 2.0938 2.7891 2.0938 4.9219 0 2.1367-0.69922 3.7812-2.0938 4.9375-1.3867 1.1562-3.375 1.7344-5.9688 1.7344h-3.4844v7.0781h-5.25zm5.25 3.8125v5.7031h2.9219c1.0195 0 1.8047-0.25 2.3594-0.75 0.5625-0.5 0.84375-1.2031 0.84375-2.1094 0-0.91406-0.28125-1.6172-0.84375-2.1094-0.55469-0.48828-1.3398-0.73438-2.3594-0.73438z"/>
  </symbol>
  <symbol id="m" overflow="visible">
   <path d="m2.3594-15.312h4.8906v15.031c0 2.0508-0.49609 3.6172-1.4844 4.7031-0.98047 1.082-2.4062 1.625-4.2812 1.625h-2.4219v-3.2188h0.85938c0.92578 0 1.5625-0.21094 1.9062-0.625 0.35156-0.41797 0.53125-1.2461 0.53125-2.4844zm0-5.9688h4.8906v4h-4.8906z"/>
  </symbol>
  <symbol id="l" overflow="visible">
   <path d="m14.719-14.828v3.9844c-0.65625-0.45703-1.3242-0.79688-2-1.0156-0.66797-0.21875-1.3594-0.32812-2.0781-0.32812-1.3672 0-2.4336 0.40234-3.2031 1.2031-0.76172 0.79297-1.1406 1.9062-1.1406 3.3438 0 1.4297 0.37891 2.543 1.1406 3.3438 0.76953 0.79297 1.8359 1.1875 3.2031 1.1875 0.75781 0 1.4844-0.10938 2.1719-0.32812 0.6875-0.22656 1.3203-0.56641 1.9062-1.0156v4c-0.76172 0.28125-1.5391 0.48828-2.3281 0.625-0.78125 0.14453-1.5742 0.21875-2.375 0.21875-2.7617 0-4.9219-0.70703-6.4844-2.125-1.5547-1.4141-2.3281-3.3828-2.3281-5.9062 0-2.5312 0.77344-4.5039 2.3281-5.9219 1.5625-1.4141 3.7227-2.125 6.4844-2.125 0.80078 0 1.5938 0.074219 2.375 0.21875 0.78125 0.13672 1.5547 0.35156 2.3281 0.64062z"/>
  </symbol>
 </defs>
 <g>
  <path d="m120.51 163.63h-10.305c-2.2383 0-4.0312-1.793-4.0312-4.0312v-10.922c0-2.2383 1.793-4.0312 4.0312-4.0312h10.305c2.2383 0 4.0312 1.793 4.0312 4.0312v10.922c0 2.1836-1.7891 4.0312-4.0312 4.0312zm-10.305-15.57c-0.33594 0-0.55859 0.28125-0.55859 0.55859v10.922c0 0.33594 0.28125 0.55859 0.55859 0.55859h10.305c0.33594 0 0.55859-0.28125 0.55859-0.55859v-10.922c0-0.33594-0.28125-0.55859-0.55859-0.55859z"/>
  <path d="m431.87 390.66h-287.84c-4.0898 0-7.4492-3.3594-7.4492-7.4492l0.003907-235.09c0-4.0898 3.3594-7.4492 7.4492-7.4492h287.84c4.0898 0 7.4492 3.3594 7.4492 7.4492v235.09c-0.003907 4.0859-3.3633 7.4453-7.4531 7.4453zm-287.84-246.57c-2.2383 0-4.0312 1.793-4.0312 4.0312v235.09c0 2.2383 1.793 4.0312 4.0312 4.0312h287.84c2.2383 0 4.0312-1.793 4.0312-4.0312v-235.09c0-2.2383-1.793-4.0312-4.0312-4.0312z"/>
  <path d="m597.57 431.37h-495.15c-4.0898 0-7.4492-3.3594-7.4492-7.4492v-287.84c0-4.0898 3.3594-7.4492 7.4492-7.4492h495.1c4.0898 0 7.4492 3.3594 7.4492 7.4492v287.84c0.050782 4.0898-3.3086 7.4492-7.3984 7.4492zm-495.15-299.32c-2.2383 0-4.0312 1.793-4.0312 4.0312v287.84c0 2.2383 1.793 4.0312 4.0312 4.0312h495.1c2.2383 0 4.0312-1.793 4.0312-4.0312l-0.003907-287.84c0-2.2383-1.793-4.0312-4.0312-4.0312z"/>
  <path d="m242.43 325.19c-1.3438 0-2.4062-0.89453-2.6328-2.1836l-24.809-145.54-24.809 145.54c-0.22266 1.2891-1.2891 2.1836-2.6328 2.1836s-2.4062-0.89453-2.5742-2.2383c-0.054688-0.33594-4.3672-28.336-7.3359-44.016l-10.414 38.137c-0.61719 2.1836-1.7344 2.6328-2.5742 2.6328-0.83984 0-1.9609-0.44922-2.5742-2.6328l-6.6094-24.191-2.9102 10.695c-0.22266 0.89453-1.1758 1.457-2.1289 1.2305-0.89453-0.22266-1.457-1.1758-1.2305-2.1289l3.6953-13.496c0.61719-2.1836 1.7344-2.6328 2.5742-2.6328 0.83984 0 1.9609 0.44922 2.5742 2.6328l6.6094 24.191 11.535-42.336c0.22266-0.78516 0.89453-1.3438 1.6797-1.2891 0.78516 0 1.457 0.55859 1.625 1.3438 2.1836 9.4648 6.3828 35.617 8.0625 46.535l24.754-145.32c0.22266-1.2891 1.2891-2.1836 2.6328-2.1836s2.4062 0.89453 2.6328 2.1836l24.754 145.32 7.2227-46.258c0.22266-1.3438 1.1758-2.0156 2.0156-2.0703 0.83984-0.054687 1.8477 0.44922 2.1836 1.7344l11.535 42.336 6.6094-24.191c0.61719-2.1836 1.7344-2.6328 2.5742-2.6328 0.83984 0 1.9609 0.44922 2.5742 2.6328l5.0977 18.648 11.426-41.945c0.22266-0.72656 0.89453-1.2891 1.6797-1.2891 0.78516 0 1.457 0.55859 1.625 1.2891l10.191 41.273 4.4258-17.977c0.55859-2.1836 1.625-2.6875 2.4648-2.6875 0.83984 0 1.9609 0.44922 2.4648 2.6875l5.8242 23.52 10.305-41.664c0.33594-1.2891 1.2891-1.793 2.1289-1.793 0.83984 0.054687 1.793 0.72656 2.0156 2.0703l6.3828 45.137 22.23-144.26c0.16797-1.2891 1.2305-2.1836 2.5195-2.1836 1.2891 0 2.3516 0.95313 2.5195 2.1836l22.23 144.26c1.625-11.48 5.2656-36.23 7.168-45.414 0.16797-0.78516 0.83984-1.3438 1.6797-1.3438 0.78516 0 1.5117 0.50391 1.6797 1.2891l10.305 41.664 5.8242-23.52c0.55859-2.1836 1.625-2.6875 2.4648-2.6875s1.9609 0.44922 2.4648 2.6875l3.3047 13.496c0.22266 0.89453-0.33594 1.8477-1.2305 2.0703-0.89453 0.22266-1.8477-0.33594-2.0703-1.2305l-2.4648-10.023-5.8242 23.52c-0.55859 2.1836-1.625 2.6875-2.4648 2.6875s-1.9609-0.44922-2.4648-2.6875l-9.2383-37.352c-2.6875 15.793-6.4414 42.895-6.4961 43.23-0.16797 1.2891-1.2305 2.2383-2.5195 2.2383-1.2891 0-2.3516-0.95312-2.5195-2.1836l-22.289-144.48-22.289 144.48c-0.22266 1.2891-1.2305 2.1836-2.5195 2.1836-1.2891 0-2.3516-0.95312-2.5195-2.2383l-6.2734-44.297-9.4648 38.414c-0.55859 2.1836-1.625 2.6875-2.4648 2.6875s-1.9609-0.44922-2.4648-2.6875l-5.8242-23.52-4.4258 17.977c-0.28125 1.1758-1.2891 1.9609-2.4648 1.9609-1.1758 0-2.1836-0.78516-2.4648-1.9609l-9.4648-38.305-10.473 38.359c-0.33594 1.1758-1.3438 1.9609-2.5742 1.9609s-2.2383-0.78516-2.5742-1.9609l-5.0977-18.703-6.6094 24.191c-0.61719 2.1836-1.7344 2.6328-2.5742 2.6328-0.83984 0-1.9609-0.44922-2.5742-2.6328l-10.695-39.258-7.0547 45.137c-0.17578 1.4648-1.2383 2.3594-2.582 2.3594z"/>
  <path d="m576.35 225.46h-101.58c-4.0898 0-7.4492-3.3594-7.4492-7.4492v-58.238c0-4.0898 3.3594-7.4492 7.4492-7.4492h101.59c4.0898 0 7.4492 3.3594 7.4492 7.4492v58.238c-0.003907 4.0898-3.3633 7.4492-7.4531 7.4492zm-101.58-69.723c-2.2383 0-4.0312 1.793-4.0312 4.0312v58.238c0 2.2383 1.793 4.0312 4.0312 4.0312h101.59c2.2383 0 4.0312-1.793 4.0312-4.0312v-58.238c0-2.2383-1.793-4.0312-4.0312-4.0312z"/>
  <path d="m550.54 295.57c-9.2969 0-17.754-6.2734-20.105-15.68-1.3438-5.375-0.50391-10.922 2.3516-15.68 2.8555-4.7617 7.3906-8.0625 12.711-9.4062 11.09-2.7422 22.344 3.9766 25.09 15.062 2.7422 11.09-3.9766 22.344-15.062 25.09-1.6797 0.39062-3.3594 0.61328-4.9844 0.61328zm0-37.965c-1.3984 0-2.8008 0.16797-4.1992 0.50391-9.2383 2.2969-14.84 11.703-12.543 20.945 2.2969 9.2383 11.703 14.84 20.945 12.543 9.2383-2.2969 14.84-11.703 12.543-20.945-1.9609-7.8398-9.0156-13.047-16.746-13.047z"/>
  <path d="m558.77 281.9c-0.61719 0-1.2891-0.11328-1.9023-0.28125-1.5117-0.50391-2.7422-1.5664-3.4141-2.9688-0.72656-1.3984-0.83984-3.0234-0.33594-4.5352 0.50391-1.5117 1.5664-2.7422 2.9688-3.4141 1.3984-0.72656 3.0234-0.83984 4.5352-0.33594 1.5117 0.50391 2.7422 1.5664 3.4141 2.9688 0.72656 1.3984 0.83984 3.0234 0.33594 4.5352-0.50391 1.5117-1.5664 2.7422-2.9688 3.4141-0.84375 0.39453-1.7383 0.61719-2.6328 0.61719zm0-8.4531c-0.39062 0-0.78516 0.11328-1.1211 0.28125-0.61719 0.28125-1.0625 0.83984-1.2305 1.457-0.22266 0.61719-0.16797 1.3438 0.11328 1.9023 0.28125 0.61719 0.83984 1.0625 1.457 1.2305 0.61719 0.22266 1.2891 0.16797 1.9023-0.11328 0.61719-0.28125 1.0625-0.83984 1.2305-1.457 0.22266-0.61719 0.16797-1.2891-0.11328-1.9023-0.28125-0.61719-0.83984-1.0625-1.457-1.2305-0.27734-0.11328-0.55859-0.16797-0.78125-0.16797z"/>
  <path d="m587.21 390.66h-122.7c-4.0898 0-7.4492-3.3594-7.4492-7.4492v-235.09c0-4.0898 3.3594-7.4492 7.4492-7.4492h122.7c4.0898 0 7.4492 3.3594 7.4492 7.4492v235.09c0 4.0859-3.3047 7.4453-7.4492 7.4453zm-122.7-246.57c-2.2383 0-4.0312 1.793-4.0312 4.0312v235.09c0 2.2383 1.793 4.0312 4.0312 4.0312h122.7c2.2383 0 4.0312-1.793 4.0312-4.0312v-235.09c0-2.2383-1.793-4.0312-4.0312-4.0312z"/>
  <path d="m120.51 194.32h-10.305c-2.2383 0-4.0312-1.793-4.0312-4.0312v-10.922c0-2.2383 1.793-4.0312 4.0312-4.0312h10.305c2.2383 0 4.0312 1.793 4.0312 4.0312v10.922c0 2.2383-1.7891 4.0312-4.0312 4.0312zm-10.305-15.566c-0.33594 0-0.55859 0.28125-0.55859 0.55859v10.922c0 0.33594 0.28125 0.55859 0.55859 0.55859h10.305c0.33594 0 0.55859-0.28125 0.55859-0.55859v-10.922c0-0.33594-0.28125-0.55859-0.55859-0.55859z"/>
  <path d="m577.47 345.63h-102.03c-4.0898 0-7.4492-3.3594-7.4492-7.4492v-87.977c0-4.0898 3.3594-7.4492 7.4492-7.4492h102.03c4.0898 0 7.4492 3.3594 7.4492 7.4492v87.977c0 4.0898-3.3047 7.4492-7.4492 7.4492zm-102.03-99.457c-2.2383 0-4.0312 1.793-4.0312 4.0312v87.977c0 2.2383 1.793 4.0312 4.0312 4.0312h102.03c2.2383 0 4.0312-1.793 4.0312-4.0312v-87.977c0-2.2383-1.793-4.0312-4.0312-4.0312z"/>
  <path d="m499.86 175.17h-16.969c-2.2383 0-4.0312-1.793-4.0312-4.0312v-3.3594c0-2.2383 1.793-4.0312 4.0312-4.0312h16.969c2.2383 0 4.0312 1.793 4.0312 4.0312v3.3594c0 2.1836-1.7891 4.0312-4.0312 4.0312zm-16.969-8.0078c-0.33594 0-0.55859 0.28125-0.55859 0.55859v3.3594c0 0.33594 0.28125 0.55859 0.55859 0.55859h16.969c0.33594 0 0.55859-0.28125 0.55859-0.55859v-3.3594c0-0.33594-0.28125-0.55859-0.55859-0.55859z"/>
  <path d="m534.24 175.17h-16.969c-2.2383 0-4.0312-1.793-4.0312-4.0312v-3.3594c0-2.2383 1.793-4.0312 4.0312-4.0312h16.969c2.2383 0 4.0312 1.793 4.0312 4.0312v3.3594c0.003907 2.1836-1.7891 4.0312-4.0312 4.0312zm-16.965-8.0078c-0.33594 0-0.55859 0.28125-0.55859 0.55859v3.3594c0 0.33594 0.28125 0.55859 0.55859 0.55859h16.969c0.33594 0 0.55859-0.28125 0.55859-0.55859v-3.3594c0-0.33594-0.28125-0.55859-0.55859-0.55859z"/>
  <path d="m568.68 175.17h-16.969c-2.2383 0-4.0312-1.793-4.0312-4.0312v-3.3594c0-2.2383 1.793-4.0312 4.0312-4.0312h16.969c2.2383 0 4.0312 1.793 4.0312 4.0312v3.3594c-0.054688 2.1836-1.8477 4.0312-4.0312 4.0312zm-16.969-8.0078c-0.33594 0-0.55859 0.28125-0.55859 0.55859v3.3594c0 0.33594 0.28125 0.55859 0.55859 0.55859h16.969c0.33594 0 0.55859-0.28125 0.55859-0.55859v-3.3594c0-0.33594-0.28125-0.55859-0.55859-0.55859z"/>
  <path d="m489.5 271.88h-5.207c-2.2383 0-4.0312-1.793-4.0312-4.0312v-5.543c0-2.2383 1.793-4.0312 4.0312-4.0312h5.207c2.2383 0 4.0312 1.793 4.0312 4.0312v5.543c0 2.2422-1.8477 4.0312-4.0312 4.0312zm-5.207-10.137c-0.33594 0-0.55859 0.28125-0.55859 0.55859v5.543c0 0.33594 0.28125 0.55859 0.55859 0.55859h5.207c0.33594 0 0.55859-0.28125 0.55859-0.55859v-5.543c0-0.33594-0.28125-0.55859-0.55859-0.55859z"/>
  <path d="m486.86 413.05c-1.8477 0-3.3594-1.5117-3.3594-3.3594 0-1.8477 1.5117-3.3594 3.3594-3.3594 1.8477 0 3.3594 1.5117 3.3594 3.3594 0.058594 1.8477-1.4531 3.3594-3.3594 3.3594zm0-3.4141-0.054687 0.054687c0 0.054688 0.054687 0.054688 0.054687 0.054688z"/>
  <path d="m486.92 421.06c-1.1758 0-2.4062-0.16797-3.5859-0.55859-2.8555-0.95312-5.207-2.9688-6.5508-5.7109-2.8008-5.6016-0.55859-12.434 5.0391-15.23 2.6875-1.3438 5.7695-1.5664 8.6797-0.61719 2.8555 0.95313 5.207 2.9688 6.5508 5.7109 1.3438 2.6875 1.5664 5.7695 0.61719 8.6797-0.95312 2.8555-2.9688 5.207-5.7109 6.5508-1.5703 0.73047-3.3047 1.1758-5.0391 1.1758zm-0.058594-19.32c-1.2305 0-2.4062 0.28125-3.5273 0.83984-3.9219 1.9609-5.4883 6.7188-3.5273 10.641 0.95312 1.9023 2.5742 3.3047 4.5938 3.9766 2.0156 0.67188 4.1445 0.50391 6.0469-0.44922 1.9023-0.95312 3.3047-2.5742 3.9766-4.5938 0.67188-2.0156 0.50391-4.1445-0.44922-6.0469-0.95312-1.9023-2.5742-3.3047-4.5938-3.9766-0.83984-0.22266-1.6797-0.39062-2.5195-0.39062z"/>
  <path d="m519.01 413.05c-1.8477 0-3.3594-1.5117-3.3594-3.3594 0-1.8477 1.5117-3.3594 3.3594-3.3594 1.8477 0 3.3594 1.5117 3.3594 3.3594 0 1.8477-1.5117 3.3594-3.3594 3.3594zm0-3.4141-0.054687 0.054687c0 0.054688 0.054687 0.054688 0.054687 0.054688z"/>
  <path d="m519.01 421.06c-1.1758 0-2.4062-0.16797-3.5859-0.55859-2.8555-0.95312-5.207-2.9688-6.5508-5.7109-2.8008-5.6016-0.55859-12.434 5.0391-15.23 2.6875-1.3438 5.7695-1.5664 8.6797-0.61719 2.8555 0.95313 5.207 2.9688 6.5508 5.7109 1.3438 2.6875 1.5664 5.7695 0.61719 8.6797-0.95312 2.8555-2.9688 5.207-5.7109 6.5508-1.5664 0.73047-3.3047 1.1758-5.0391 1.1758zm0-19.32c-1.2305 0-2.4062 0.28125-3.5273 0.83984-3.9219 1.9609-5.4883 6.7188-3.5273 10.641 0.95312 1.9023 2.5742 3.3047 4.5938 3.9766 2.0156 0.67188 4.1445 0.50391 6.0469-0.44922s3.3047-2.5742 3.9766-4.5938c0.67188-2.0156 0.50391-4.1445-0.44922-6.0469s-2.5742-3.3047-4.5938-3.9766c-0.83984-0.22266-1.6797-0.39062-2.5195-0.39062z"/>
  <path d="m548.8 413.05c-1.8477 0-3.3594-1.5117-3.3594-3.3594 0-1.8477 1.5117-3.3594 3.3594-3.3594 1.8477 0 3.3594 1.5117 3.3594 3.3594 0 1.8477-1.5117 3.3594-3.3594 3.3594zm0-3.4141-0.054687 0.054687c0 0.054688 0.054687 0.054688 0.054687 0.054688z"/>
  <path d="m548.8 421.06c-1.1758 0-2.4062-0.16797-3.5859-0.55859-2.8555-0.95312-5.207-2.9688-6.5508-5.7109-2.8008-5.6016-0.55859-12.434 5.0391-15.23 2.6875-1.3438 5.7695-1.5664 8.6797-0.61719 2.8555 0.95313 5.207 2.9688 6.5508 5.7109 1.3438 2.6875 1.5664 5.7695 0.61719 8.6797-0.95312 2.8555-2.9688 5.207-5.7109 6.5508-1.5117 0.73047-3.2461 1.1758-5.0391 1.1758zm0-19.32c-1.2305 0-2.4062 0.28125-3.5273 0.83984-3.9219 1.9609-5.4883 6.7188-3.5273 10.641 0.95312 1.9023 2.5742 3.3047 4.5938 3.9766 2.0156 0.67188 4.1445 0.50391 6.0469-0.44922 1.9023-0.95312 3.3047-2.5742 3.9766-4.5938 0.67188-2.0156 0.50391-4.1445-0.44922-6.0469-0.95312-1.9023-2.5742-3.3047-4.5938-3.9766-0.83984-0.22266-1.6797-0.39062-2.5195-0.39062z"/>
  <path d="m405.83 419.5h-16.969c-2.2383 0-4.0312-1.793-4.0312-4.0312v-11.594c0-2.2383 1.793-4.0312 4.0312-4.0312h16.969c2.2383 0 4.0312 1.793 4.0312 4.0312v11.594c0 2.2383-1.8477 4.0312-4.0312 4.0312zm-16.969-16.184c-0.33594 0-0.55859 0.28125-0.55859 0.55859v11.594c0 0.33594 0.28125 0.55859 0.55859 0.55859h16.969c0.33594 0 0.55859-0.28125 0.55859-0.55859v-11.594c0-0.33594-0.28125-0.55859-0.55859-0.55859z"/>
  <path d="m364.56 419.5h-16.969c-2.2383 0-4.0312-1.793-4.0312-4.0312v-11.594c0-2.2383 1.793-4.0312 4.0312-4.0312h16.969c2.2383 0 4.0312 1.793 4.0312 4.0312v11.594c-0.054688 2.2383-1.8477 4.0312-4.0312 4.0312zm-16.965-16.184c-0.33594 0-0.55859 0.28125-0.55859 0.55859v11.594c0 0.33594 0.28125 0.55859 0.55859 0.55859h16.969c0.33594 0 0.55859-0.28125 0.55859-0.55859v-11.594c0-0.33594-0.28125-0.55859-0.55859-0.55859z"/>
  <path d="m230.38 419.5h-16.969c-2.2383 0-4.0312-1.793-4.0312-4.0312v-11.594c0-2.2383 1.793-4.0312 4.0312-4.0312h16.969c2.2383 0 4.0312 1.793 4.0312 4.0312v11.594c0 2.2383-1.8477 4.0312-4.0312 4.0312zm-16.969-16.184c-0.33594 0-0.55859 0.28125-0.55859 0.55859v11.594c0 0.33594 0.28125 0.55859 0.55859 0.55859h16.969c0.33594 0 0.55859-0.28125 0.55859-0.55859v-11.594c0-0.33594-0.28125-0.55859-0.55859-0.55859z"/>
  <path d="m189.11 419.5h-16.969c-2.2383 0-4.0312-1.793-4.0312-4.0312v-11.594c0-2.2383 1.793-4.0312 4.0312-4.0312h16.969c2.2383 0 4.0312 1.793 4.0312 4.0312v11.594c-0.054687 2.2383-1.8477 4.0312-4.0312 4.0312zm-16.969-16.184c-0.33594 0-0.55859 0.28125-0.55859 0.55859v11.594c0 0.33594 0.28125 0.55859 0.55859 0.55859h16.969c0.33594 0 0.55859-0.28125 0.55859-0.55859v-11.594c0-0.33594-0.28125-0.55859-0.55859-0.55859z"/>
  <path d="m511.28 271.88h-5.207c-2.2383 0-4.0312-1.793-4.0312-4.0312v-5.543c0-2.2383 1.793-4.0312 4.0312-4.0312h5.207c2.2383 0 4.0312 1.793 4.0312 4.0312v5.543c0 2.2422-1.8477 4.0312-4.0312 4.0312zm-5.2109-10.137c-0.33594 0-0.55859 0.28125-0.55859 0.55859v5.543c0 0.33594 0.28125 0.55859 0.55859 0.55859h5.207c0.33594 0 0.55859-0.28125 0.55859-0.55859v-5.543c0-0.33594-0.28125-0.55859-0.55859-0.55859z"/>
  <path d="m489.5 292.54h-5.207c-2.2383 0-4.0312-1.793-4.0312-4.0312v-5.543c0-2.2383 1.793-4.0312 4.0312-4.0312h5.207c2.2383 0 4.0312 1.793 4.0312 4.0312v5.543c0 2.1836-1.8477 4.0312-4.0312 4.0312zm-5.207-10.137c-0.33594 0-0.55859 0.28125-0.55859 0.55859v5.543c0 0.33594 0.28125 0.55859 0.55859 0.55859h5.207c0.33594 0 0.55859-0.28125 0.55859-0.55859v-5.543c0-0.33594-0.28125-0.55859-0.55859-0.55859z"/>
  <path d="m511.28 292.54h-5.207c-2.2383 0-4.0312-1.793-4.0312-4.0312v-5.543c0-2.2383 1.793-4.0312 4.0312-4.0312h5.207c2.2383 0 4.0312 1.793 4.0312 4.0312v5.543c0 2.1836-1.8477 4.0312-4.0312 4.0312zm-5.2109-10.137c-0.33594 0-0.55859 0.28125-0.55859 0.55859v5.543c0 0.33594 0.28125 0.55859 0.55859 0.55859h5.207c0.33594 0 0.55859-0.28125 0.55859-0.55859v-5.543c0-0.33594-0.28125-0.55859-0.55859-0.55859z"/>
  <path d="m489.5 312.03h-5.207c-2.2383 0-4.0312-1.793-4.0312-4.0312v-5.543c0-2.2383 1.793-4.0312 4.0312-4.0312h5.207c2.2383 0 4.0312 1.793 4.0312 4.0312v5.543c0 2.2383-1.8477 4.0312-4.0312 4.0312zm-5.207-10.137c-0.33594 0-0.55859 0.28125-0.55859 0.55859l-0.003907 5.5469c0 0.33594 0.28125 0.55859 0.55859 0.55859h5.207c0.33594 0 0.55859-0.28125 0.55859-0.55859v-5.543c0-0.33594-0.28125-0.55859-0.55859-0.55859z"/>
  <path d="m511.28 312.03h-5.207c-2.2383 0-4.0312-1.793-4.0312-4.0312v-5.543c0-2.2383 1.793-4.0312 4.0312-4.0312h5.207c2.2383 0 4.0312 1.793 4.0312 4.0312v5.543c0 2.2383-1.8477 4.0312-4.0312 4.0312zm-5.2109-10.137c-0.33594 0-0.55859 0.28125-0.55859 0.55859v5.5469c0 0.33594 0.28125 0.55859 0.55859 0.55859h5.207c0.33594 0 0.55859-0.28125 0.55859-0.55859v-5.543c0-0.33594-0.28125-0.55859-0.55859-0.55859z"/>
  <path d="m489.5 332.64h-5.207c-2.2383 0-4.0312-1.793-4.0312-4.0312v-5.4883c0-2.2383 1.793-4.0312 4.0312-4.0312h5.207c2.2383 0 4.0312 1.793 4.0312 4.0312v5.543c0 2.1836-1.8477 3.9766-4.0312 3.9766zm-5.207-10.137c-0.33594 0-0.55859 0.28125-0.55859 0.55859v5.543c0 0.33594 0.28125 0.55859 0.55859 0.55859h5.207c0.33594 0 0.55859-0.28125 0.55859-0.55859v-5.4844c0-0.33594-0.28125-0.55859-0.55859-0.55859l-5.207-0.003906z"/>
  <path d="m511.28 332.64h-5.207c-2.2383 0-4.0312-1.793-4.0312-4.0312l-0.003907-5.4883c0-2.2383 1.793-4.0312 4.0312-4.0312h5.207c2.2383 0 4.0312 1.793 4.0312 4.0312v5.543c0.003906 2.1836-1.8438 3.9766-4.0273 3.9766zm-5.2109-10.137c-0.33594 0-0.55859 0.28125-0.55859 0.55859v5.543c0 0.33594 0.28125 0.55859 0.55859 0.55859h5.207c0.33594 0 0.55859-0.28125 0.55859-0.55859l0.003906-5.4844c0-0.33594-0.28125-0.55859-0.55859-0.55859l-5.2109-0.003906z"/>
  <path d="m499.86 194.66h-16.969c-2.2383 0-4.0312-1.793-4.0312-4.0312v-3.3594c0-2.2383 1.793-4.0312 4.0312-4.0312h16.969c2.2383 0 4.0312 1.793 4.0312 4.0312v3.3594c0 2.1836-1.7891 4.0312-4.0312 4.0312zm-16.969-7.9531c-0.33594 0-0.55859 0.28125-0.55859 0.55859v3.3594c0 0.33594 0.28125 0.55859 0.55859 0.55859h16.969c0.33594 0 0.55859-0.28125 0.55859-0.55859v-3.3594c0-0.33594-0.28125-0.55859-0.55859-0.55859z"/>
  <path d="m534.24 194.66h-16.969c-2.2383 0-4.0312-1.793-4.0312-4.0312v-3.3594c0-2.2383 1.793-4.0312 4.0312-4.0312h16.969c2.2383 0 4.0312 1.793 4.0312 4.0312v3.3594c0.003907 2.1836-1.7891 4.0312-4.0312 4.0312zm-16.965-7.9531c-0.33594 0-0.55859 0.28125-0.55859 0.55859v3.3594c0 0.33594 0.28125 0.55859 0.55859 0.55859h16.969c0.33594 0 0.55859-0.28125 0.55859-0.55859v-3.3594c0-0.33594-0.28125-0.55859-0.55859-0.55859z"/>
  <path d="m568.68 194.66h-16.969c-2.2383 0-4.0312-1.793-4.0312-4.0312v-3.3594c0-2.2383 1.793-4.0312 4.0312-4.0312h16.969c2.2383 0 4.0312 1.793 4.0312 4.0312v3.3594c-0.054688 2.1836-1.8477 4.0312-4.0312 4.0312zm-16.969-7.9531c-0.33594 0-0.55859 0.28125-0.55859 0.55859v3.3594c0 0.33594 0.28125 0.55859 0.55859 0.55859h16.969c0.33594 0 0.55859-0.28125 0.55859-0.55859v-3.3594c0-0.33594-0.28125-0.55859-0.55859-0.55859z"/>
  <path d="m562.52 330.85c-0.67188 0-1.3438-0.22266-1.8477-0.67188-0.72656-0.55859-1.1211-1.457-1.1211-2.3516v-18.93c0-0.89453 0.39062-1.793 1.1211-2.3516 0.67188-0.55859 1.5664-0.78516 2.4648-0.61719 1.457 0.28125 2.8555 0.95312 4.1445 1.9023 3.0234 2.3516 4.8164 6.2734 4.8164 10.527 0 6.1602-3.7539 11.367-8.9609 12.434-0.22656 0.003907-0.44922 0.058594-0.61719 0.058594zm0.44922-21.449v17.863c3.2461-1.0078 5.6562-4.7031 5.6562-8.9023 0-3.1914-1.2891-6.1055-3.5273-7.7852-0.67188-0.55859-1.4023-0.94922-2.1289-1.1758z"/>
  <path d="m538.55 330.85c-0.16797 0-0.39062 0-0.55859-0.054687-5.1523-1.0625-8.9609-6.2734-8.9609-12.434 0-4.2578 1.793-8.1758 4.8164-10.527 1.2305-0.95312 2.6328-1.625 4.1445-1.9023 0.83984-0.16797 1.7344 0.054687 2.4648 0.61719 0.72656 0.55859 1.1211 1.457 1.1211 2.3516v18.93c0 0.89453-0.39062 1.793-1.1211 2.3516-0.61719 0.44531-1.2344 0.66797-1.9062 0.66797zm-2.6289-20.328c-2.1836 1.6797-3.5273 4.5938-3.5273 7.7852 0 4.1992 2.4062 7.9531 5.6562 8.9023v-17.863c-0.73047 0.28125-1.457 0.67188-2.1289 1.1758z"/>
  <path d="m553.05 333.43h-4.8711c-2.2383 0-4.0312-1.793-4.0312-4.0312v-4.8711c0-2.2383 1.793-4.0312 4.0312-4.0312h4.8711c2.2383 0 4.0312 1.793 4.0312 4.0312v4.8711c0.003906 2.2383-1.7891 4.0312-4.0312 4.0312zm-4.8711-9.4648c-0.33594 0-0.55859 0.28125-0.55859 0.55859v4.8711c0 0.33594 0.28125 0.55859 0.55859 0.55859h4.8711c0.33594 0 0.55859-0.28125 0.55859-0.55859v-4.8711c0-0.33594-0.28125-0.55859-0.55859-0.55859z"/>
  <path d="m553.22 317.74h-5.207c-2.2383 0-4.0312-1.793-4.0312-4.0312v-5.543c0-2.2383 1.793-4.0312 4.0312-4.0312h5.207c2.2383 0 4.0312 1.793 4.0312 4.0312v5.543c0.003906 2.2422-1.7891 4.0312-4.0312 4.0312zm-5.207-10.133c-0.33594 0-0.55859 0.28125-0.55859 0.55859v5.543c0 0.33594 0.28125 0.55859 0.55859 0.55859h5.207c0.33594 0 0.55859-0.28125 0.55859-0.55859v-5.543c0-0.33594-0.28125-0.55859-0.55859-0.55859z"/>
  <use x="70" y="644" xlink:href="#s"/>
  <use x="90.550781" y="644" xlink:href="#d"/>
  <use x="104.359375" y="644" xlink:href="#b"/>
  <use x="123.347656" y="644" xlink:href="#c"/>
  <use x="142.242188" y="644" xlink:href="#a"/>
  <use x="155.628906" y="644" xlink:href="#b"/>
  <use x="174.617188" y="644" xlink:href="#k"/>
  <use x="204.410156" y="644" xlink:href="#j"/>
  <use x="224.453125" y="644" xlink:href="#i"/>
  <use x="252.453125" y="644" xlink:href="#h"/>
  <use x="274.121094" y="644" xlink:href="#f"/>
  <use x="294.054688" y="644" xlink:href="#c"/>
  <use x="312.949219" y="644" xlink:href="#f"/>
  <use x="332.882812" y="644" xlink:href="#a"/>
  <use x="346.265625" y="644" xlink:href="#g"/>
  <use x="366.203125" y="644" xlink:href="#c"/>
  <use x="70" y="672" xlink:href="#r"/>
  <use x="82.183594" y="672" xlink:href="#d"/>
  <use x="95.992188" y="672" xlink:href="#e"/>
  <use x="115.226562" y="672" xlink:href="#q"/>
  <use x="154.152344" y="672" xlink:href="#a"/>
  <use x="167.535156" y="672" xlink:href="#g"/>
  <use x="187.46875" y="672" xlink:href="#b"/>
  <use x="216.207031" y="672" xlink:href="#p"/>
  <use x="239.640625" y="672" xlink:href="#e"/>
  <use x="258.878906" y="672" xlink:href="#o"/>
  <use x="278.8125" y="672" xlink:href="#f"/>
  <use x="308.492188" y="672" xlink:href="#n"/>
  <use x="329.015625" y="672" xlink:href="#d"/>
  <use x="342.820312" y="672" xlink:href="#e"/>
  <use x="362.058594" y="672" xlink:href="#m"/>
  <use x="371.65625" y="672" xlink:href="#b"/>
  <use x="390.648438" y="672" xlink:href="#l"/>
  <use x="407.242188" y="672" xlink:href="#a"/>
 </g>
</svg>
