<?xml version="1.0" standalone="no"?>
<!DOCTYPE svg PUBLIC "-//W3C//DTD SVG 20010904//EN"
 "http://www.w3.org/TR/2001/REC-SVG-20010904/DTD/svg10.dtd">
<svg version="1.0" xmlns="http://www.w3.org/2000/svg"
 width="400.000000pt" height="400.000000pt" viewBox="0 0 400.000000 400.000000"
 preserveAspectRatio="xMidYMid meet">

<g transform="translate(0.000000,400.000000) scale(0.100000,-0.100000)"
fill="#000000" stroke="none">
<path d="M1966 3842 c-18 -72 -23 -80 -41 -64 -6 5 -32 21 -60 37 l-50 29 16
-25 c58 -91 62 -101 48 -110 -8 -5 -21 -9 -29 -10 -8 0 -33 -6 -55 -13 l-40
-13 57 -13 c92 -21 91 -15 19 -129 -16 -25 -16 -25 34 4 28 16 56 33 63 39 18
13 26 -1 42 -72 14 -62 20 -58 40 26 6 28 14 52 16 52 3 0 21 -11 42 -23 20
-13 48 -30 62 -37 24 -13 24 -13 9 11 -41 65 -61 100 -58 104 2 1 33 12 69 22
l65 20 -57 13 c-31 7 -61 16 -67 20 -7 4 -1 26 20 63 17 31 27 57 23 57 -4 0
-29 -14 -56 -31 -28 -16 -51 -29 -53 -27 -2 2 -12 34 -22 73 l-20 70 -17 -73z"/>
<path d="M1480 3799 c-56 -10 -100 -55 -100 -100 0 -41 44 -84 101 -98 64 -16
93 -33 103 -62 14 -39 0 -75 -33 -89 -34 -14 -67 -6 -98 23 -27 24 -34 21 -22
-11 13 -34 48 -46 98 -32 60 16 91 49 91 98 0 59 -29 88 -111 113 -72 22 -99
45 -99 86 0 26 35 53 70 53 14 0 36 -7 48 -16 18 -12 22 -12 22 -1 0 32 -23
44 -70 36z"/>
<path d="M2501 3788 c-7 -7 -57 -75 -112 -150 -74 -102 -106 -138 -122 -139
-21 0 -21 -1 -2 -8 11 -5 36 -12 55 -16 32 -6 33 -6 16 8 -18 13 -18 16 14 63
18 27 35 51 37 53 1 2 27 -2 57 -9 l54 -13 6 -58 c8 -65 4 -79 -22 -80 -18 -1
74 -28 97 -29 8 0 5 7 -8 18 -19 15 -23 33 -33 187 -6 94 -14 174 -18 178 -4
5 -13 3 -19 -5z m-6 -120 c7 -75 7 -75 -58 -57 l-38 10 42 60 c23 32 43 58 44
57 2 -2 6 -33 10 -70z"/>
<path d="M2690 3707 c-22 -27 -23 -30 -5 -23 42 17 54 17 94 -3 22 -12 41 -25
41 -29 0 -4 -31 -65 -69 -137 -64 -123 -70 -130 -100 -133 -32 -3 -32 -4 29
-33 72 -34 79 -35 56 -11 -15 18 -12 27 54 161 l70 142 32 -17 c50 -25 68 -45
68 -73 0 -25 1 -25 24 9 l24 35 -27 6 c-37 8 -251 119 -251 130 0 17 -15 8
-40 -24z"/>
<path d="M1119 3648 c-1 -7 -1 -16 -1 -19 1 -3 8 -59 16 -125 21 -161 22 -210
7 -228 -18 -21 -8 -20 39 4 39 20 56 38 25 26 -19 -7 -32 23 -37 83 -3 41 -2
42 45 68 l48 27 44 -44 c36 -35 42 -47 34 -62 -8 -15 -1 -14 47 9 49 25 53 28
30 31 -17 2 -69 45 -152 123 -70 65 -131 119 -135 119 -5 0 -10 -6 -10 -12z
m121 -148 c0 -11 -73 -41 -80 -33 -5 4 -11 37 -15 73 l-7 65 51 -50 c28 -27
51 -52 51 -55z"/>
<path d="M930 3560 c0 -10 -145 -133 -202 -173 l-35 -23 18 -35 18 -34 1 37
c0 30 7 42 39 67 l40 31 100 -122 c97 -117 100 -122 86 -144 -8 -13 -15 -26
-15 -30 0 -5 50 34 114 87 4 4 -7 6 -25 6 -30 -2 -40 7 -125 108 -51 61 -93
115 -94 121 0 14 71 64 91 64 8 0 21 -6 28 -12 14 -14 13 -8 -8 35 -14 26 -31
36 -31 17z"/>
<path d="M3090 3525 c0 -4 4 -14 10 -24 11 -22 -6 -48 -116 -168 -56 -62 -82
-83 -95 -80 -27 7 -24 1 17 -36 55 -48 66 -53 53 -23 -10 22 -8 30 19 63 65
82 59 82 146 7 l77 -66 -44 -51 c-33 -38 -52 -52 -71 -52 -32 1 -31 -2 20 -48
46 -41 60 -47 44 -18 -5 11 -10 22 -10 25 0 7 111 138 163 193 33 34 44 40 59
32 33 -18 19 6 -26 44 -51 42 -61 46 -46 17 12 -23 -5 -53 -54 -99 l-25 -24
-43 36 c-24 19 -58 48 -77 65 l-35 29 44 52 c36 42 48 51 67 46 13 -3 23 -4
23 -2 0 2 -22 23 -50 46 -27 23 -50 39 -50 36z"/>
<path d="M1845 3354 c-161 -18 -330 -68 -480 -144 -147 -74 -229 -134 -356
-260 -200 -197 -326 -437 -375 -712 -19 -107 -21 -331 -4 -448 60 -408 288
-749 653 -975 388 -239 901 -264 1315 -65 287 138 526 376 657 653 172 362
167 824 -13 1182 -196 393 -563 668 -1002 750 -85 16 -319 27 -395 19z m-290
-200 c85 -40 59 -138 -42 -159 -18 -4 -33 -8 -33 -10 0 -2 10 -23 23 -47 32
-62 88 -111 144 -127 26 -7 59 -16 73 -21 14 -5 40 -11 58 -14 26 -4 32 -2 32
12 0 9 6 29 14 44 13 25 13 27 -7 30 -18 3 -16 6 15 28 20 13 34 28 32 32 -2
4 2 10 9 15 15 9 47 53 47 65 0 4 -8 4 -17 1 -12 -5 -15 -2 -10 10 5 12 -6 24
-39 43 -25 15 -43 29 -40 32 3 3 12 -1 20 -7 8 -7 20 -10 26 -6 6 3 26 -3 45
-15 20 -12 35 -17 35 -10 0 13 -75 49 -105 51 -17 1 -16 2 5 9 l25 8 -26 1
c-19 1 -28 -5 -32 -19 -7 -28 -24 -25 -31 7 -15 58 57 75 148 34 27 -11 60
-21 75 -21 51 0 151 -77 151 -116 0 -13 5 -26 11 -30 8 -5 6 -10 -5 -16 -9 -5
-14 -13 -11 -19 4 -5 -1 -9 -9 -9 -9 0 -16 -4 -16 -10 0 -5 7 -10 16 -10 8 0
12 -5 9 -10 -3 -6 3 -24 15 -40 23 -33 23 -34 -13 -21 -23 9 -24 9 -14 -29
l11 -38 58 3 c68 5 130 22 173 48 54 33 75 50 75 63 0 7 8 19 18 26 10 7 18
22 19 33 0 11 3 27 7 36 6 13 -1 18 -33 23 -45 7 -81 44 -81 83 0 14 13 37 29
54 26 25 37 29 86 29 148 0 211 -97 186 -290 -6 -47 -11 -116 -11 -152 0 -55
3 -67 18 -71 13 -3 11 -6 -11 -17 -24 -12 -30 -11 -45 4 -9 9 -24 38 -33 64
l-17 47 -13 -30 c-17 -41 -24 -197 -10 -224 7 -11 21 -21 32 -21 29 0 18 -24
-12 -28 -53 -6 -91 57 -105 176 -4 29 -10 55 -14 57 -30 19 -48 -259 -21 -323
13 -30 18 -33 43 -28 26 5 29 3 26 -17 -2 -17 -10 -23 -39 -25 -31 -3 -41 2
-68 33 -18 21 -36 33 -43 29 -7 -5 -8 -3 -3 5 4 7 16 10 27 8 12 -3 18 -1 15
6 -2 7 -26 13 -53 15 -57 4 -63 8 -44 25 10 9 11 9 6 0 -5 -9 2 -13 23 -13 22
0 31 5 31 16 0 10 -5 14 -16 10 -8 -3 -12 -2 -9 4 8 14 -22 24 -38 14 -7 -5
-4 -1 6 9 11 9 26 17 34 17 11 0 14 6 9 23 -3 12 -6 33 -6 46 l0 23 -19 -23
-19 -24 -10 25 c-5 14 -11 32 -14 40 -4 11 -7 10 -17 -8 l-12 -22 -24 27 c-33
40 -39 24 -12 -30 13 -25 20 -48 14 -50 -12 -4 18 -63 35 -70 9 -4 8 -6 -2 -6
-9 -1 -24 14 -34 33 -10 19 -25 37 -32 40 -24 9 -27 -15 -5 -45 30 -40 26 -51
-5 -11 -16 21 -34 32 -50 32 -21 0 -24 4 -19 20 5 14 2 20 -10 20 -9 0 -15 6
-14 13 7 56 -12 61 -34 10 -26 -61 -28 -79 -16 -107 9 -20 9 -29 0 -40 -15
-18 -5 -80 20 -121 51 -85 226 -115 217 -37 -2 22 2 28 20 30 50 7 72 -55 30
-82 -37 -23 -79 -27 -153 -17 -38 6 -71 9 -73 7 -1 -2 20 -20 48 -40 52 -38
60 -59 23 -64 -18 -3 -60 39 -100 97 -2 2 -6 1 -10 -2 -3 -4 2 -25 12 -46 17
-40 15 -71 -5 -71 -13 0 -27 33 -35 83 -10 59 -29 46 -22 -15 8 -63 -4 -89
-30 -72 -15 9 -17 22 -15 68 5 71 -15 76 -24 6 -8 -59 -27 -81 -51 -57 -14 14
-14 19 6 52 35 60 24 63 -28 6 -48 -52 -73 -61 -79 -29 -2 9 15 27 42 44 54
34 58 46 14 36 -18 -4 -65 -7 -105 -7 -62 0 -75 3 -97 24 -14 14 -26 27 -26
31 0 16 27 39 52 46 27 6 28 5 22 -25 -6 -27 -3 -32 20 -41 75 -28 167 8 204
80 23 47 29 109 11 127 -7 7 -6 15 6 26 18 19 13 71 -12 121 -12 22 -17 26
-24 15 -5 -8 -9 -25 -9 -38 0 -17 -4 -22 -16 -17 -13 5 -15 2 -11 -14 4 -16 1
-20 -11 -18 -19 4 -67 -46 -58 -60 3 -5 -1 -9 -9 -9 -15 0 -13 6 18 49 11 14
16 31 13 37 -13 20 -33 11 -46 -18 -6 -16 -21 -38 -32 -48 -16 -14 -15 -8 7
27 17 27 24 45 17 48 -8 2 -8 11 2 30 7 15 16 40 20 56 6 26 5 28 -8 17 -8 -7
-18 -21 -21 -32 -9 -27 -23 -23 -31 8 -7 26 -8 25 -30 -23 -14 -31 -23 -42
-23 -28 -1 11 -8 29 -16 40 -13 17 -14 14 -15 -39 0 -49 3 -59 21 -65 20 -8
19 -9 -6 -20 -20 -9 -26 -18 -22 -32 3 -11 1 -18 -4 -14 -5 3 -9 -5 -9 -16 0
-19 4 -21 28 -16 20 5 23 4 12 -4 -8 -5 -24 -10 -35 -10 -11 0 -33 -16 -48
-35 -29 -37 -71 -47 -95 -23 -18 18 -14 28 12 28 70 0 93 175 44 343 -6 20
-13 35 -16 33 -2 -3 -10 -39 -17 -81 -22 -128 -73 -193 -126 -164 -22 11 -22
12 8 24 25 11 33 22 42 63 13 52 5 125 -19 187 l-12 30 -12 -47 c-16 -60 -31
-78 -67 -78 -34 0 -47 16 -19 23 17 4 20 14 20 55 0 27 -5 74 -11 103 -25 128
-9 248 39 303 45 50 145 70 207 40z m155 -725 c0 -6 -4 -7 -10 -4 -5 3 -10 11
-10 16 0 6 5 7 10 4 6 -3 10 -11 10 -16z m-32 -25 c2 -1 -5 -5 -15 -8 -9 -4
-14 -4 -10 0 4 4 1 14 -6 23 -11 14 -10 15 8 1 11 -8 21 -15 23 -16z m181 9
c-3 -20 2 -26 11 -13 8 13 10 13 10 -1 0 -11 -8 -16 -24 -16 -18 0 -22 4 -19
18 5 18 24 28 22 12z m288 -15 c-3 -8 -6 -5 -6 6 -1 11 2 17 5 13 3 -3 4 -12
1 -19z m-354 -15 c-18 -4 -52 -39 -85 -87 -5 -7 -10 -7 -15 -1 -5 6 -7 9 -5 9
7 -4 52 44 52 54 0 15 31 32 55 30 18 -1 18 -1 -2 -5z m442 -18 c18 -37 52
-68 60 -55 4 7 2 16 -5 20 -9 5 -9 9 -1 14 18 12 25 -24 8 -41 -14 -14 -18
-13 -41 13 -14 16 -28 37 -31 46 -3 9 -19 19 -35 22 -29 6 -29 6 2 4 21 -2 36
-10 43 -23z m-529 -5 c-7 -8 -16 -22 -19 -30 -4 -12 -6 -12 -6 2 -1 9 4 20 10
24 8 4 7 9 -2 15 -10 6 -7 8 8 6 19 -1 20 -3 9 -17z m-862 -396 c10 -25 7 -34
-9 -34 -8 0 -15 4 -15 9 0 5 -3 16 -6 25 -4 10 -1 16 9 16 8 0 18 -7 21 -16z
m76 -4 c0 -21 -24 -28 -35 -10 -8 14 3 30 21 30 8 0 14 -9 14 -20z m90 1 c0
-21 -25 -46 -34 -33 -9 15 5 52 20 52 8 0 14 -8 14 -19z m94 -3 c-29 -50 -58
-78 -68 -68 -8 9 0 21 29 46 44 37 50 40 39 22z m-325 -55 c3 -2 -1 -9 -8 -16
-10 -9 -16 -7 -32 13 -43 55 -44 66 -3 36 21 -16 41 -31 43 -33z m1952 24 c-6
-8 -43 -29 -82 -47 l-72 -33 -131 6 c-101 5 -140 3 -171 -8 -22 -8 -76 -15
-121 -15 -78 0 -81 -1 -102 -30 -17 -22 -31 -30 -54 -30 -26 0 -29 -2 -18 -15
20 -25 59 -18 91 16 26 28 32 30 74 24 25 -4 47 -11 50 -15 8 -12 -44 -74 -87
-103 -54 -36 -81 -42 -118 -27 -39 16 -38 30 3 30 30 1 29 2 -17 18 -51 18
-56 23 -75 83 -23 73 -6 130 44 149 15 6 73 3 157 -7 152 -17 444 -13 563 10
39 7 72 12 74 10 2 -1 -1 -9 -8 -16z m390 -5 c-15 -28 -73 -70 -144 -102 -92
-43 -213 -61 -408 -61 -166 0 -167 0 -190 -26 -31 -34 -78 -53 -131 -54 -33 0
-38 -2 -23 -9 29 -12 93 -12 118 1 12 6 36 24 52 40 28 26 34 28 88 22 31 -3
57 -10 57 -15 0 -16 -65 -48 -100 -48 -26 0 -31 -3 -20 -10 8 -5 26 -10 39
-10 21 0 22 -2 10 -17 -18 -21 -71 -43 -104 -43 -14 0 -25 -4 -25 -10 0 -13
71 -13 104 0 15 5 28 20 32 35 3 14 19 34 35 46 16 11 32 31 35 43 5 21 10 22
52 18 51 -4 383 14 420 24 30 8 28 -11 -3 -32 -58 -38 -163 -56 -317 -55 -82
1 -148 -1 -148 -4 0 -3 17 -13 38 -22 25 -11 82 -18 177 -23 l140 -6 -50 -24
c-48 -24 -58 -25 -255 -25 -198 0 -205 -1 -227 -22 -18 -19 -33 -23 -83 -23
-61 0 -70 6 -47 29 10 10 6 10 -17 1 -31 -11 -80 -1 -124 28 -12 8 -25 12 -28
9 -10 -9 49 -47 90 -57 22 -6 51 -15 64 -20 13 -6 47 -10 77 -10 53 0 73 10
94 47 8 15 18 14 106 -12 l98 -29 -29 -24 c-26 -23 -33 -24 -109 -19 l-80 6
63 -26 c34 -15 62 -30 62 -35 0 -12 -59 -9 -118 6 -63 17 -59 6 15 -36 51 -29
54 -32 37 -45 -27 -20 -52 -16 -122 17 -76 36 -77 21 -2 -35 l53 -40 -32 -3
c-20 -2 -50 7 -86 26 -30 17 -55 27 -55 23 0 -3 14 -23 31 -44 17 -21 30 -40
27 -42 -2 -2 -32 18 -68 45 -35 28 -65 50 -67 50 -5 0 38 -82 59 -113 11 -16
19 -29 17 -31 -2 -2 -19 1 -36 6 -22 6 -38 19 -50 43 -10 18 -35 45 -55 59
-36 24 -38 24 -38 5 0 -11 11 -24 25 -31 14 -6 25 -14 25 -18 0 -18 90 -143
143 -197 44 -45 58 -66 50 -74 -8 -8 -30 12 -79 70 -37 44 -70 78 -72 76 -7
-7 21 -44 82 -111 50 -56 59 -74 34 -74 -5 0 -38 27 -73 60 -35 33 -67 60 -70
60 -11 0 13 -35 50 -73 35 -36 39 -57 11 -57 -18 0 -82 71 -91 100 -11 35 -25
4 -25 -57 0 -36 -8 -66 -25 -99 -14 -26 -25 -56 -25 -68 0 -12 -4 -28 -10 -36
-19 -31 -21 17 -2 66 11 27 22 66 25 86 5 32 1 41 -34 76 -40 41 -43 54 -39
130 1 23 -1 42 -4 42 -3 0 -13 -17 -22 -37 l-16 -38 -15 34 c-11 26 -17 31
-23 21 -6 -10 -11 -6 -16 16 -4 16 -20 62 -36 103 -19 47 -32 100 -35 147 -3
41 -9 74 -14 74 -4 0 -9 21 -11 48 -3 44 -4 45 -15 22 -10 -22 -12 -16 -12 46
-1 55 3 73 14 78 23 8 18 46 -12 88 -29 43 -22 65 19 55 38 -10 168 -101 181
-127 15 -30 82 -70 120 -70 60 0 141 58 197 140 22 32 50 62 62 66 13 4 133 8
268 8 215 1 258 4 350 24 58 13 132 36 165 52 33 15 61 29 63 29 1 1 -2 -7 -7
-17z m-2147 -25 c54 -30 78 -67 83 -124 16 -165 -182 -240 -283 -108 -58 76
-34 184 51 232 51 29 99 29 149 0z m164 -53 c-23 -24 -42 -35 -52 -31 -25 10
-18 20 27 44 61 31 67 28 25 -13z m-402 13 c3 -2 2 -12 -2 -21 -4 -11 -10 -13
-18 -8 -6 5 -24 12 -39 16 -40 10 -22 29 21 23 19 -4 36 -8 38 -10z m898 -37
c14 -5 26 -17 26 -25 0 -9 12 -32 26 -51 15 -19 24 -37 21 -40 -7 -7 -75 14
-82 25 -2 5 7 6 21 3 21 -4 25 -1 22 14 -4 24 -64 64 -95 64 -14 0 -21 4 -18
10 8 13 46 13 79 0z m-914 -61 c0 -16 -5 -20 -27 -17 -31 4 -42 24 -16 31 35
9 43 7 43 -14z m479 -5 c2 -2 -7 -4 -21 -4 -14 0 -40 -3 -57 -6 -26 -6 -31 -4
-31 13 0 19 4 20 53 11 28 -5 54 -12 56 -14z m-471 -66 c4 -20 -45 -31 -52
-12 -5 14 22 35 39 30 6 -1 11 -10 13 -18z m419 -20 l28 -12 -39 -4 c-47 -4
-66 2 -66 24 0 17 23 15 77 -8z m-394 -74 c-31 -26 -48 -31 -36 -11 34 53 37
56 51 45 11 -9 8 -16 -15 -34z m331 -5 c20 -34 15 -33 -36 5 -21 15 -25 23
-16 33 13 16 26 7 52 -38z m-249 -8 c3 -5 1 -12 -4 -15 -5 -3 -12 -21 -15 -41
-4 -19 -11 -37 -16 -40 -11 -7 -14 64 -4 89 7 18 29 21 39 7z m175 -37 c31
-71 24 -80 -20 -29 -43 49 -47 60 -27 68 23 10 26 7 47 -39z m-94 -5 c-3 -17
-6 -41 -6 -53 -1 -31 -16 -1 -23 47 -5 33 -3 37 15 37 18 0 20 -4 14 -31z
m1782 -339 c-10 -29 -91 -110 -111 -110 -5 0 -7 11 -5 25 6 31 1 31 -29 3 -34
-32 -28 -5 8 36 17 20 53 44 82 55 68 26 68 26 55 -9z m-983 -100 l20 -23 -22
12 c-34 17 -46 14 -33 -9 14 -27 -2 -25 -27 3 -26 28 -36 61 -28 88 7 22 9 21
90 -71z m1190 18 c-6 -55 -23 -98 -36 -98 -5 0 -6 14 -2 30 6 32 -10 42 -21
14 -4 -9 -9 -14 -12 -11 -11 11 56 117 74 117 2 0 1 -24 -3 -52z m-1739 7 c36
-28 62 -65 45 -65 -6 0 -20 10 -32 23 l-21 22 4 -37 c5 -44 -3 -48 -26 -13
-16 24 -23 95 -9 95 3 0 21 -11 39 -25z m397 -48 c13 -17 36 -62 51 -98 15
-36 42 -89 61 -117 18 -28 37 -57 41 -64 14 -25 -46 35 -68 68 -13 19 -26 34
-30 34 -4 0 -10 -21 -14 -47 l-7 -48 -22 65 c-11 36 -26 74 -32 85 -6 11 -16
47 -23 80 -6 33 -14 68 -17 78 -4 16 -2 17 16 8 11 -6 31 -26 44 -44z m307
-40 c0 -10 7 -31 15 -47 16 -30 6 -80 -21 -109 -10 -11 -11 -6 -2 29 8 31 8
56 -1 92 -6 27 -11 57 -11 66 0 15 2 15 10 2 5 -8 10 -23 10 -33z m-456 -81
c49 -74 54 -87 58 -148 l4 -68 -32 31 c-57 55 -92 136 -108 248 -6 39 -5 43 9
31 9 -7 40 -50 69 -94z m1189 2 c-49 -94 -103 -150 -195 -202 l-33 -19 21 24
c26 28 49 73 58 112 9 39 80 113 141 148 27 16 51 29 53 29 2 0 -18 -41 -45
-92z m-173 -8 c-10 -25 -119 -125 -127 -117 -1 1 7 29 18 61 10 33 19 65 19
72 0 7 19 26 43 44 l42 31 9 -30 c6 -21 5 -40 -4 -61z m-354 -5 c17 -27 12
-47 -11 -38 -9 3 -15 18 -15 34 0 35 5 36 26 4z m228 -30 c-25 -71 -55 -107
-124 -145 -46 -26 -74 -51 -98 -86 -57 -84 -70 -70 -23 24 31 60 97 130 171
179 25 17 54 40 64 52 11 11 20 21 22 21 2 0 -4 -20 -12 -45z m-732 -118 c12
-47 20 -88 17 -91 -3 -4 -20 -1 -38 5 -23 8 -38 22 -47 45 -18 43 -18 68 2
135 l17 54 13 -32 c7 -17 23 -69 36 -116z m853 67 c-8 -26 -26 -60 -42 -77
-29 -31 -255 -147 -286 -147 -16 0 -15 5 10 40 21 31 50 51 119 86 50 24 117
67 150 94 32 27 60 50 61 50 1 0 -4 -21 -12 -46z m-505 -15 c-9 -16 -14 -18
-20 -9 -10 17 -30 -19 -30 -54 0 -27 -24 -37 -33 -13 -8 21 10 53 50 86 39 32
53 28 33 -10z m-103 -205 c-8 -9 -165 31 -180 45 -22 21 -32 78 -22 128 l7 38
99 -105 c54 -57 97 -105 96 -106z m69 28 c4 -13 2 -28 -5 -35 -8 -8 -27 6 -71
50 -55 54 -60 64 -60 103 l0 42 65 -68 c35 -38 68 -79 71 -92z m131 126 c-15
-9 -19 -4 -11 16 5 14 9 15 15 5 5 -8 3 -17 -4 -21z m558 12 c3 -10 1 -28 -4
-39 -15 -28 -157 -77 -341 -117 -45 -10 -17 4 95 47 65 25 134 59 169 85 33
24 63 44 67 44 4 0 10 -9 14 -20z m-675 -24 c0 -8 14 -26 30 -39 25 -22 30
-33 30 -71 0 -42 -2 -46 -24 -46 -22 0 -26 7 -40 69 -19 81 -20 101 -6 101 6
0 10 -6 10 -14z m150 -17 c0 -26 -46 -129 -57 -129 -25 0 -15 76 13 109 27 32
44 40 44 20z"/>
<path d="M1790 3135 c-10 -12 -6 -13 25 -8 30 5 44 0 83 -28 54 -38 65 -50 52
-63 -5 -5 -24 1 -45 14 -20 12 -38 20 -41 17 -6 -6 63 -47 80 -47 26 0 37 25
20 48 -8 12 -12 26 -9 32 9 15 -70 50 -113 50 -22 0 -45 -6 -52 -15z"/>
<path d="M1433 3098 c-3 -7 -1 -14 5 -16 9 -3 8 -10 -3 -25 -22 -31 -18 -43 6
-21 12 10 33 19 47 19 21 0 27 5 27 25 0 21 -5 24 -37 26 -21 2 -41 -2 -45 -8z"/>
<path d="M2467 3099 c6 -6 9 -18 6 -26 -4 -11 1 -14 20 -11 14 1 34 -5 46 -16
18 -16 21 -17 21 -3 0 9 -5 19 -10 22 -6 4 -8 15 -5 26 6 17 1 19 -41 19 -36
0 -45 -3 -37 -11z"/>
<path d="M2005 3070 c-8 -13 18 -23 42 -17 14 4 13 5 -5 6 -13 0 -20 6 -17 11
3 6 2 10 -4 10 -5 0 -13 -5 -16 -10z"/>
<path d="M2565 2874 c-120 -65 -222 -105 -341 -136 -49 -12 -81 -24 -71 -26
41 -8 319 72 450 131 60 27 67 33 67 58 0 16 -1 29 -2 28 -2 0 -48 -25 -103
-55z"/>
<path d="M1310 2895 c0 -23 9 -31 73 -60 116 -53 379 -135 436 -135 33 0 -5
15 -91 37 -64 15 -142 47 -248 100 -85 43 -158 79 -162 81 -5 2 -8 -8 -8 -23z"/>
<path d="M2335 2450 c3 -5 12 -7 20 -3 21 7 19 13 -6 13 -11 0 -18 -4 -14 -10z"/>
<path d="M1595 2370 c-3 -5 -1 -10 4 -10 6 0 11 5 11 10 0 6 -2 10 -4 10 -3 0
-8 -4 -11 -10z"/>
<path d="M1940 1890 c-11 -11 -20 -28 -20 -37 0 -13 6 -11 28 10 17 16 47 31
73 36 l44 9 -52 1 c-41 1 -58 -4 -73 -19z"/>
<path d="M2295 1808 c-24 -14 -35 -28 -35 -47 0 -10 7 -8 24 8 13 13 41 29 63
36 l38 14 -35 0 c-19 0 -44 -5 -55 -11z"/>
<path d="M1720 1781 c0 -20 13 -41 21 -35 6 3 16 0 24 -6 12 -10 15 -9 15 3 0
9 -10 23 -22 31 -25 18 -38 20 -38 7z"/>
<path d="M2341 1634 c-38 -27 -91 -33 -171 -19 -19 3 -17 1 9 -11 19 -8 55
-18 80 -21 37 -4 51 -1 74 17 15 12 32 30 37 41 13 23 13 23 -29 -7z"/>
<path d="M2015 1520 c43 -48 112 -64 151 -36 17 13 15 14 -22 9 -31 -4 -52 1
-95 22 -51 26 -53 26 -34 5z"/>
<path d="M1982 1471 c9 -13 29 -32 43 -41 22 -15 24 -18 10 -24 -27 -10 -67 5
-114 43 -31 25 -41 30 -33 16 17 -34 61 -73 89 -80 14 -3 42 -17 62 -31 40
-27 88 -31 117 -9 10 8 29 15 42 15 28 0 62 17 62 30 0 6 -10 6 -26 -1 -27 -9
-44 -7 -97 13 -25 10 -26 12 -10 24 16 12 14 13 -14 8 -32 -6 -60 4 -118 42
l-29 19 16 -24z m145 -82 c30 -19 33 -23 18 -31 -21 -12 -75 -3 -101 17 -16
13 -17 16 -4 25 23 15 50 12 87 -11z"/>
<path d="M2320 1453 c-29 -21 -43 -24 -82 -19 -59 6 -62 0 -7 -14 56 -15 96
-5 114 31 9 16 14 29 13 28 -2 0 -19 -12 -38 -26z"/>
<path d="M588 3245 c-43 -49 -47 -61 -17 -45 24 13 16 19 156 -108 83 -75 92
-87 87 -110 -7 -30 -7 -30 51 35 l37 43 -29 -6 c-26 -5 -41 4 -137 91 -90 81
-107 102 -103 121 6 34 -3 30 -45 -21z"/>
<path d="M3464 3148 c1 -23 -39 -57 -173 -148 -70 -48 -75 -50 -92 -34 -40 36
-25 6 43 -86 38 -52 73 -101 77 -109 7 -11 14 -11 47 0 l39 13 -37 6 c-44 8
-57 17 -93 70 -28 40 -28 41 -9 61 10 12 39 35 63 52 l44 30 18 -24 c26 -33
34 -66 19 -84 -18 -22 -4 -18 40 11 45 30 51 43 16 37 -18 -4 -30 3 -52 32
l-27 36 29 24 c16 13 43 32 61 41 31 18 32 17 52 -7 34 -41 45 -77 33 -104
-14 -31 -2 -32 25 -2 l21 22 -66 92 c-37 51 -70 92 -73 93 -3 0 -5 -10 -5 -22z"/>
<path d="M458 3092 c-57 -61 -63 -109 -19 -153 35 -35 76 -38 138 -9 66 30
103 30 133 0 47 -47 4 -120 -72 -120 -39 -1 -41 -2 -24 -15 10 -8 24 -16 30
-19 20 -9 -33 -44 -82 -54 -114 -25 -122 -25 -122 -9 0 48 -50 97 -99 97 -35
0 -78 -47 -106 -117 -42 -104 -41 -100 -17 -80 20 18 23 18 159 -40 124 -53
138 -61 143 -86 5 -26 7 -23 32 32 28 65 28 67 -1 49 -15 -9 -30 -7 -72 9 -82
31 -78 75 8 87 25 3 64 11 86 17 41 11 87 51 87 76 0 8 14 26 30 40 35 29 60
72 60 103 0 52 -49 100 -103 100 -12 0 -52 -12 -90 -27 l-68 -26 -27 20 c-56
41 -28 118 42 116 43 -1 45 2 7 21 -27 14 -29 14 -53 -12z m-66 -352 c14 -11
28 -28 30 -38 7 -25 -17 -82 -34 -82 -21 0 -138 52 -138 62 0 17 29 66 42 71
29 12 77 6 100 -13z"/>
<path d="M3593 2818 c-27 -13 -53 -65 -53 -106 0 -48 -20 -92 -51 -107 -38
-20 -46 -19 -74 10 -30 29 -32 68 -5 113 23 37 12 42 -25 9 -26 -22 -26 -25
-15 -66 16 -62 58 -101 107 -101 69 0 93 31 113 145 11 62 21 79 57 89 30 9
76 -31 76 -67 0 -15 -9 -37 -18 -47 -22 -24 -1 -28 29 -5 17 13 18 19 7 56
-23 76 -84 108 -148 77z"/>
<path d="M3784 2593 c10 -18 -3 -40 -32 -52 -15 -5 -80 -27 -145 -47 -113 -36
-118 -36 -137 -19 -20 18 -20 18 -4 -31 26 -81 26 -81 33 -54 6 22 22 30 131
67 140 47 174 51 189 26 6 -10 11 -13 11 -7 0 18 -32 108 -43 119 -7 7 -8 6
-3 -2z"/>
<path d="M155 2458 c-27 -121 -43 -203 -40 -207 3 -2 7 4 11 13 8 21 30 20
170 -8 150 -31 154 -33 154 -64 0 -43 8 -21 34 97 32 140 32 145 1 159 -40 18
-46 14 -20 -13 27 -26 29 -40 15 -99 -14 -63 -26 -69 -103 -55 -59 11 -67 15
-67 35 0 38 18 74 42 83 19 7 15 9 -25 19 -59 15 -66 15 -43 -3 15 -11 18 -23
14 -60 -3 -25 -8 -48 -10 -51 -6 -5 -120 20 -136 30 -6 4 -6 23 2 53 9 36 21
54 46 71 l33 22 -36 0 c-30 0 -38 -4 -42 -22z"/>
<path d="M3853 2349 c-13 -30 -23 -33 -192 -50 -114 -12 -115 -12 -133 11 -18
23 -18 22 -12 -36 7 -61 14 -84 14 -46 0 12 9 26 20 32 19 10 241 40 249 34 2
-2 -35 -46 -84 -99 -48 -52 -108 -118 -133 -147 l-47 -51 40 6 c22 3 98 12
169 19 122 12 129 11 142 -7 18 -25 20 -20 14 45 -5 47 -7 51 -14 28 -5 -18
-17 -29 -34 -33 -37 -7 -172 -24 -200 -25 -22 0 -22 1 -8 21 8 12 62 73 121
135 101 108 106 116 103 151 -4 38 -4 38 -15 12z"/>
<path d="M99 2132 c-2 -28 -1 -52 4 -52 4 0 7 7 7 15 0 8 3 15 6 15 15 0 254
-103 254 -110 0 -4 -56 -29 -125 -55 -122 -47 -126 -48 -140 -29 -13 17 -14
13 -15 -44 l0 -63 23 25 c14 15 82 48 184 87 90 35 159 66 155 70 -4 3 -34 16
-67 29 -145 56 -265 119 -274 142 -7 19 -9 13 -12 -30z"/>
<path d="M3547 1936 c-4 -10 -7 -32 -7 -49 1 -27 2 -29 11 -15 9 17 15 16 70
-13 44 -22 59 -34 55 -45 -3 -9 -6 -31 -6 -49 0 -41 -15 -51 -88 -61 -46 -6
-52 -5 -53 12 -2 29 -17 -36 -17 -76 -1 -30 0 -32 8 -13 10 25 9 25 213 67 81
17 149 36 150 41 1 5 -70 48 -157 95 -97 52 -162 93 -166 104 -6 18 -7 18 -13
2z m213 -141 c27 -13 51 -29 54 -33 5 -8 -85 -32 -118 -32 -7 0 -10 17 -8 45
2 25 8 45 13 45 5 0 32 -11 59 -25z"/>
<path d="M450 1783 c0 -12 -4 -24 -9 -27 -11 -7 -253 -46 -284 -46 -15 0 -28
9 -35 23 -10 18 -11 12 -6 -33 6 -56 23 -104 24 -67 0 25 29 34 175 57 l130
20 18 -22 c18 -21 18 -21 11 33 -7 59 -23 101 -24 62z"/>
<path d="M470 1591 c-8 -5 -77 -30 -153 -56 -133 -46 -138 -47 -157 -30 -20
18 -20 18 -4 -31 17 -49 43 -91 30 -47 -5 17 -1 26 18 38 30 20 207 87 214 81
5 -6 -134 -264 -156 -289 -13 -15 -13 -22 -1 -60 13 -40 13 -41 17 -14 4 33
44 54 195 103 73 23 91 26 107 16 26 -16 25 -2 0 53 -17 36 -19 38 -19 14 -1
-16 -8 -30 -18 -34 -69 -28 -227 -85 -229 -82 -2 1 40 79 92 172 51 93 94 170
94 172 0 5 -15 3 -30 -6z"/>
<path d="M3459 1458 c-32 -26 -49 -63 -49 -109 0 -41 4 -51 32 -74 43 -36 94
-31 167 19 29 20 63 36 75 36 25 0 66 -38 66 -62 0 -27 -40 -68 -66 -68 -30 0
-31 -16 -1 -24 34 -9 35 -8 57 34 29 57 26 95 -10 132 -27 26 -36 30 -69 25
-21 -2 -63 -21 -92 -41 -30 -20 -63 -36 -75 -36 -32 0 -74 38 -74 66 0 38 51
84 91 84 21 0 29 4 24 9 -18 17 -60 22 -76 9z"/>
<path d="M3280 1130 c-40 -59 -43 -75 -9 -44 20 18 16 20 217 -110 l72 -47
-31 -46 c-27 -39 -35 -44 -60 -41 l-29 5 26 -28 27 -28 20 37 c26 50 115 182
140 210 l21 23 -28 27 c-23 22 -27 23 -21 7 12 -31 8 -53 -16 -91 -14 -23 -27
-33 -36 -30 -23 9 -206 128 -231 150 -15 14 -22 29 -19 43 2 13 3 23 1 23 -2
0 -22 -27 -44 -60z"/>
<path d="M474 1115 c-102 -66 -121 -74 -142 -53 -22 22 -13 -3 15 -40 41 -56
42 -57 40 -26 -2 25 8 36 82 91 102 77 148 92 194 66 18 -11 41 -35 51 -54 35
-65 8 -107 -133 -203 -64 -44 -75 -48 -97 -37 -28 12 -29 14 20 -57 33 -48 39
-52 31 -19 -6 21 6 32 90 91 52 38 104 80 115 94 27 34 25 86 -5 137 -31 55
-64 75 -118 75 -38 0 -59 -10 -143 -65z"/>
<path d="M3082 893 c-43 -21 -81 -72 -89 -116 -7 -46 13 -82 102 -178 66 -72
73 -83 65 -105 -9 -23 -6 -21 35 13 25 20 45 42 45 47 0 6 -5 5 -12 -2 -23
-23 -45 -11 -121 67 -109 111 -122 158 -63 217 28 28 42 34 76 34 40 0 48 -5
132 -87 76 -75 89 -92 86 -115 l-4 -27 25 19 c14 10 37 30 51 45 l25 27 -29
-8 c-27 -6 -35 0 -111 79 -105 110 -142 125 -213 90z"/>
<path d="M932 831 c10 -16 6 -28 -23 -76 -19 -31 -57 -87 -84 -123 -44 -58
-55 -67 -80 -65 l-30 2 30 -24 c32 -26 50 -31 60 -15 7 11 255 144 260 139 3
-4 -37 -235 -49 -280 -6 -22 -2 -30 28 -53 20 -15 36 -23 36 -17 0 5 -4 13
-10 16 -23 14 -6 47 78 151 73 91 92 109 115 109 15 -1 27 0 27 2 0 1 -21 16
-47 34 -37 26 -45 29 -39 13 4 -10 8 -22 9 -26 2 -8 -145 -210 -149 -205 -1 1
11 69 27 151 16 83 27 151 25 154 -2 2 -62 -28 -133 -67 -71 -39 -133 -71
-137 -71 -8 0 94 151 126 187 11 12 26 19 34 16 26 -10 15 3 -30 35 -51 37
-61 40 -44 13z"/>
<path d="M2811 679 c-145 -76 -176 -118 -169 -220 7 -98 70 -159 164 -159 43
0 69 8 143 46 97 50 128 74 94 74 -27 0 -41 18 -107 136 -57 104 -65 131 -44
152 20 20 -4 12 -81 -29z m31 -46 c29 -35 139 -243 133 -253 -9 -15 -75 -46
-112 -55 -48 -10 -98 11 -137 56 -66 77 -69 165 -8 221 54 51 98 61 124 31z"/>
<path d="M1359 535 c-30 -16 -48 -49 -91 -170 -27 -74 -37 -90 -58 -96 -23 -6
-24 -7 -5 -14 11 -4 35 -14 54 -21 45 -19 51 -17 21 5 l-25 20 29 88 c54 170
98 212 185 177 81 -32 87 -85 27 -244 -28 -77 -35 -85 -61 -90 -28 -6 -27 -7
25 -24 30 -11 62 -21 70 -24 11 -4 10 0 -4 16 -18 20 -17 23 18 129 39 118 44
167 20 201 -37 53 -147 79 -205 47z"/>
<path d="M2468 522 c-56 -20 -64 -27 -36 -29 28 -3 31 -8 78 -148 45 -135 47
-150 23 -164 -36 -20 -6 -18 57 5 36 12 55 23 44 23 -30 1 -36 12 -83 148 -46
136 -49 157 -23 172 27 16 -5 12 -60 -7z"/>
<path d="M1668 454 c18 -16 48 -58 66 -94 l35 -64 -37 -32 c-29 -25 -36 -38
-36 -67 0 -66 41 -90 174 -103 75 -6 75 -6 52 12 l-23 19 12 130 c14 147 21
175 46 176 38 1 -22 18 -67 18 -35 0 -41 -2 -27 -10 13 -8 17 -23 17 -64 0
-65 -7 -85 -30 -85 -21 0 -40 21 -75 87 -35 66 -62 91 -105 99 l-35 6 33 -28z
m198 -187 c2 -7 1 -44 -3 -82 -8 -67 -9 -70 -36 -73 -37 -4 -87 45 -87 86 0
47 34 82 81 82 23 0 42 -5 45 -13z"/>
<path d="M2158 461 c-75 -24 -127 -97 -128 -177 0 -64 42 -139 94 -163 55 -27
127 -27 183 0 119 58 131 243 21 317 -42 28 -121 38 -170 23z m122 -30 c37
-25 80 -116 80 -169 0 -84 -41 -136 -117 -147 -57 -9 -102 19 -135 85 -46 88
-34 200 24 231 57 31 103 31 148 0z"/>
</g>
</svg>
